<svg width="291" height="417" viewBox="0 0 291 417" fill="none" xmlns="http://www.w3.org/2000/svg">
<path d="M291 417L3.05176e-05 417L63.6731 71L207.725 71L291 417Z" fill="url(#paint0_linear)"/>
<path d="M136.5 193C180.407 193 216 157.407 216 113.5C216 69.5934 180.407 34 136.5 34C92.5934 34 57 69.5934 57 113.5C57 157.407 92.5934 193 136.5 193Z" fill="url(#paint1_linear)"/>
<path d="M136.949 175.329C170.849 175.329 198.329 147.849 198.329 113.949C198.329 80.0501 170.849 52.5694 136.949 52.5694C103.05 52.5694 75.5693 80.0501 75.5693 113.949C75.5693 147.849 103.05 175.329 136.949 175.329Z" fill="url(#paint2_linear)"/>
<g filter="url(#filter0_i)">
<path d="M174.154 135.128H173.659C173.367 135.128 173.097 135.128 172.777 135.083C170.337 135.032 167.937 135.004 165.672 135.004H164.772H163.873C160.86 135.004 157.769 135.066 154.683 135.213C151.597 135.36 148.404 135.496 145.177 135.694C142.226 135.881 138.994 136.142 135.369 136.487C131.923 136.798 128.5 137.161 125.2 137.568C121.681 137.976 118.247 138.423 114.678 138.932C113.767 139.068 112.868 139.181 111.968 139.317C111.069 139.453 110.17 139.6 109.259 139.725L108.905 139.776C108.343 139.872 107.809 139.946 107.219 140.048C107.123 140.048 105.015 140.495 104.706 141.457C104.668 141.649 104.681 141.847 104.742 142.033C104.803 142.218 104.911 142.385 105.054 142.516H105.116C105.369 142.718 105.632 142.907 105.903 143.082L130.636 157.477C132.606 158.594 134.828 159.179 137.089 159.175C139.34 159.18 141.555 158.595 143.514 157.477L171.911 140.936C173.214 140.075 174.345 138.974 175.244 137.693L175.492 137.342C175.615 137.144 175.75 136.934 175.874 136.713V136.674C175.935 136.54 175.962 136.393 175.954 136.246C175.946 136.1 175.903 135.957 175.829 135.83C175.632 135.457 175.065 135.185 174.154 135.128Z" fill="url(#paint3_linear)" fill-opacity="0.7"/>
<path d="M175.739 108.234H175.688C175.481 108.183 175.256 108.137 175.048 108.075H174.997C174.966 108.069 174.933 108.069 174.902 108.075C149.32 101.644 128.123 98.6669 108.208 98.6669C106.634 98.6669 105.437 98.6669 104.307 98.7065C97.5111 99.1254 96.4768 99.8387 96.4768 103.145V126.92C96.4768 127.837 96.2463 129.184 96.9602 129.847C97.674 130.509 99.1637 130.243 100.097 130.215L103.644 130.152C106.106 130.09 108.556 130.005 111.018 129.92C116.297 129.711 121.552 129.433 126.819 129.111C138.724 128.369 150.613 127.339 162.49 126.127L163.969 126.003C164.621 125.912 165.273 125.867 165.88 125.805L170.556 125.392C177.718 124.492 177.684 124.412 177.684 120.92V111.46C177.701 108.409 176.667 108.596 175.739 108.234Z" fill="url(#paint4_linear)" fill-opacity="0.7"/>
<path d="M102.429 88.8454C102.562 88.852 102.693 88.869 102.823 88.8964L104.582 89.0832C106.909 89.3436 109.225 89.5813 111.547 89.8417C115.081 90.2191 118.614 90.5965 122.148 90.9739C126.308 91.4211 130.445 91.8513 134.593 92.3098C138.741 92.7684 142.89 93.1929 147.06 93.6401C150.617 94.0175 154.177 94.3949 157.74 94.7723L164.84 95.5422C166.627 95.729 168.426 95.8988 170.208 96.0233C171.119 96.0743 172.018 96.1252 172.94 96.1479C173.788 96.2585 174.648 96.2413 175.492 96.0969C175.65 96.0636 175.795 95.9827 175.908 95.8648C176.537 95.2195 176.104 93.6345 175.947 92.9155C175.636 91.6031 175.06 90.3691 174.256 89.2901C173.451 88.2111 172.435 87.3102 171.27 86.6434C170.849 86.4056 143.536 70.5384 143.536 70.5384C141.578 69.4184 139.363 68.833 137.111 68.8401C134.847 68.8358 132.62 69.4207 130.647 70.5384L102.913 86.666C102.682 86.8132 102.458 86.949 102.238 87.1132C102.019 87.2774 101.834 87.3962 101.676 87.5208L101.541 87.634C101.451 87.74 101.392 87.8698 101.372 88.0081C101.352 88.1465 101.372 88.2877 101.429 88.4152C101.592 88.7096 101.997 88.7718 102.429 88.8454Z" fill="url(#paint5_linear)" fill-opacity="0.7"/>
</g>
<g filter="url(#filter1_d)">
<rect x="47" width="180" height="54" fill="url(#paint6_linear)"/>
</g>
<g filter="url(#filter2_d)">
<rect x="37" y="40" width="200" height="42" rx="12" fill="url(#paint7_linear)"/>
</g>
<defs>
<filter id="filter0_i" x="96.4413" y="68.8401" width="81.2429" height="92.3354" filterUnits="userSpaceOnUse" color-interpolation-filters="sRGB">
<feFlood flood-opacity="0" result="BackgroundImageFix"/>
<feBlend mode="normal" in="SourceGraphic" in2="BackgroundImageFix" result="shape"/>
<feColorMatrix in="SourceAlpha" type="matrix" values="0 0 0 0 0 0 0 0 0 0 0 0 0 0 0 0 0 0 127 0" result="hardAlpha"/>
<feOffset dy="2"/>
<feGaussianBlur stdDeviation="2"/>
<feComposite in2="hardAlpha" operator="arithmetic" k2="-1" k3="1"/>
<feColorMatrix type="matrix" values="0 0 0 0 0 0 0 0 0 0 0 0 0 0 0 0 0 0 0.15 0"/>
<feBlend mode="normal" in2="shape" result="effect1_innerShadow"/>
</filter>
<filter id="filter1_d" x="43" y="0" width="188" height="62" filterUnits="userSpaceOnUse" color-interpolation-filters="sRGB">
<feFlood flood-opacity="0" result="BackgroundImageFix"/>
<feColorMatrix in="SourceAlpha" type="matrix" values="0 0 0 0 0 0 0 0 0 0 0 0 0 0 0 0 0 0 127 0"/>
<feOffset dy="4"/>
<feGaussianBlur stdDeviation="2"/>
<feColorMatrix type="matrix" values="0 0 0 0 0 0 0 0 0 0 0 0 0 0 0 0 0 0 0.25 0"/>
<feBlend mode="normal" in2="BackgroundImageFix" result="effect1_dropShadow"/>
<feBlend mode="normal" in="SourceGraphic" in2="effect1_dropShadow" result="shape"/>
</filter>
<filter id="filter2_d" x="25" y="32" width="224" height="66" filterUnits="userSpaceOnUse" color-interpolation-filters="sRGB">
<feFlood flood-opacity="0" result="BackgroundImageFix"/>
<feColorMatrix in="SourceAlpha" type="matrix" values="0 0 0 0 0 0 0 0 0 0 0 0 0 0 0 0 0 0 127 0"/>
<feOffset dy="4"/>
<feGaussianBlur stdDeviation="6"/>
<feColorMatrix type="matrix" values="0 0 0 0 0 0 0 0 0 0 0 0 0 0 0 0 0 0 0.5 0"/>
<feBlend mode="normal" in2="BackgroundImageFix" result="effect1_dropShadow"/>
<feBlend mode="normal" in="SourceGraphic" in2="effect1_dropShadow" result="shape"/>
</filter>
<linearGradient id="paint0_linear" x1="329.693" y1="399.298" x2="423.032" y2="229.468" gradientUnits="userSpaceOnUse">
<stop stop-color="#5FF19D" stop-opacity="0"/>
<stop offset="1" stop-color="#8EEDF4" stop-opacity="0.2"/>
</linearGradient>
<linearGradient id="paint1_linear" x1="57" y1="113.5" x2="216" y2="113.5" gradientUnits="userSpaceOnUse">
<stop stop-color="#97F7B7"/>
<stop offset="1" stop-color="#8BE2FF"/>
</linearGradient>
<linearGradient id="paint2_linear" x1="75.5693" y1="113.949" x2="198.329" y2="113.949" gradientUnits="userSpaceOnUse">
<stop stop-color="#5DF09E"/>
<stop offset="1" stop-color="#8EEDF4"/>
</linearGradient>
<linearGradient id="paint3_linear" x1="102.438" y1="147.09" x2="180.636" y2="147.09" gradientUnits="userSpaceOnUse">
<stop stop-color="#04BEFE"/>
<stop offset="1" stop-color="#5FF19D"/>
</linearGradient>
<linearGradient id="paint4_linear" x1="93.8802" y1="114.479" x2="183.02" y2="114.479" gradientUnits="userSpaceOnUse">
<stop stop-color="#04BEFE"/>
<stop offset="1" stop-color="#5FF19D"/>
</linearGradient>
<linearGradient id="paint5_linear" x1="99.0044" y1="82.5299" x2="181.156" y2="82.5299" gradientUnits="userSpaceOnUse">
<stop stop-color="#04BEFE"/>
<stop offset="1" stop-color="#5FF19D"/>
</linearGradient>
<linearGradient id="paint6_linear" x1="43" y1="38.16" x2="251.495" y2="37.0914" gradientUnits="userSpaceOnUse">
<stop offset="0.229167" stop-color="#676C72"/>
<stop offset="0.447917" stop-color="#3C434A"/>
<stop offset="0.801982" stop-color="#3A3A3A"/>
<stop offset="1" stop-color="#131414"/>
</linearGradient>
<linearGradient id="paint7_linear" x1="216" y1="80" x2="-109" y2="-1.50003" gradientUnits="userSpaceOnUse">
<stop stop-color="#222324"/>
<stop offset="0.441123" stop-color="#565D64"/>
<stop offset="0.521964" stop-color="#63696D"/>
</linearGradient>
</defs>
</svg>
