<svg width="359" height="346" viewBox="0 0 359 346" fill="none" xmlns="http://www.w3.org/2000/svg">
<rect y="142.452" width="284.904" height="162.582" transform="rotate(-30 0 142.452)" fill="url(#paint0_linear)"/>
<g clip-path="url(#clip0)">
<path d="M357.96 208.525C357.96 208.155 357.96 207.785 357.96 207.415C357.96 206.635 357.96 205.855 357.96 205.085C357.96 204.885 357.96 204.695 357.96 204.505C357.96 203.945 357.96 203.385 357.87 202.835C357.87 202.835 357.87 202.835 357.87 202.765C357.87 202.495 357.87 202.235 357.79 201.965C357.74 201.475 357.69 200.965 357.63 200.495C357.63 200.195 357.53 199.895 357.49 199.595C357.45 199.295 357.38 198.835 357.31 198.465C357.31 198.395 357.31 198.335 357.31 198.275C357.25 197.965 357.18 197.655 357.11 197.345C357.04 197.035 356.94 196.515 356.84 196.105L356.59 195.165C356.51 194.865 356.44 194.565 356.35 194.275L356.26 193.985C356.16 193.665 356.06 193.355 355.95 193.035C355.84 192.715 355.7 192.275 355.56 191.905C355.42 191.535 355.33 191.285 355.2 190.975C355.07 190.665 355.03 190.495 354.93 190.255C354.93 190.165 354.84 190.075 354.8 189.975C354.44 189.145 354.06 188.315 353.65 187.515L333.98 149.415C334.39 150.215 334.77 151.045 335.13 151.875C335.27 152.205 335.4 152.535 335.53 152.875C335.66 153.215 335.78 153.495 335.89 153.805C336 154.115 336.16 154.555 336.28 154.935C336.4 155.315 336.49 155.565 336.59 155.935C336.69 156.305 336.81 156.725 336.92 157.115C337.03 157.505 337.09 157.735 337.17 158.055C337.25 158.375 337.36 158.885 337.44 159.305C337.52 159.725 337.58 159.915 337.64 160.225C337.7 160.535 337.79 161.105 337.86 161.555C337.86 161.845 337.96 162.145 338 162.445C338.06 162.935 338.11 163.445 338.16 163.925C338.16 164.185 338.22 164.445 338.24 164.705C338.24 165.285 338.32 165.875 338.34 166.465C338.34 166.655 338.34 166.835 338.34 167.025C338.34 167.815 338.34 168.595 338.34 169.395C338.34 169.745 338.34 170.095 338.34 170.455C338.34 170.815 338.34 171.375 338.28 171.835C338.22 172.295 338.22 172.585 338.18 172.965C338.14 173.345 338.11 173.865 338.06 174.315C337.97 175.175 337.85 176.035 337.72 176.895C337.72 177.025 337.72 177.165 337.65 177.295C337.53 178.025 337.4 178.775 337.25 179.515L337.1 180.165C336.96 180.865 336.8 181.565 336.63 182.275L336.36 183.275C336.2 183.865 336.04 184.445 335.87 185.045C335.77 185.385 335.66 185.725 335.56 186.045C335.35 186.715 335.14 187.395 334.9 188.045C334.78 188.415 334.65 188.785 334.52 189.155C334.28 189.825 334.03 190.505 333.77 191.155C333.61 191.565 333.46 191.975 333.29 192.385C333.2 192.615 333.1 192.835 333.01 193.065C332.73 193.735 332.44 194.415 332.14 195.065C332.07 195.225 332.01 195.385 331.93 195.545C331.57 196.365 331.18 197.185 330.78 198.015C330.69 198.215 330.58 198.415 330.49 198.615L329.58 200.405C329.37 200.795 329.17 201.195 328.95 201.595C328.73 201.995 328.4 202.595 328.11 203.135L327.44 204.325C327.15 204.845 326.84 205.325 326.53 205.895L325.82 207.065C325.5 207.605 325.16 208.145 324.82 208.695C324.58 209.075 324.35 209.445 324.1 209.825L323.1 211.365C322.8 211.805 322.52 212.245 322.22 212.685L321.13 214.235C320.82 214.675 320.52 215.105 320.2 215.545C319.88 215.985 319.43 216.595 319.04 217.115C318.65 217.635 318.4 217.985 318.04 218.415C317.68 218.845 317.21 219.485 316.8 220.025L315.8 221.305C315.36 221.855 314.9 222.405 314.44 222.955L313.44 224.195L311.95 225.935L310.95 227.105C310.38 227.755 309.79 228.405 309.2 229.055C308.91 229.375 308.63 229.695 308.34 230.055C307.45 231.055 306.55 232.055 305.62 232.975C304.48 234.165 303.31 235.345 302.13 236.515L301.51 237.145C300.37 238.265 299.213 239.375 298.04 240.475L297.36 241.115C296.147 242.242 294.92 243.362 293.68 244.475L293.49 244.635C292.28 245.715 291.04 246.785 289.79 247.845L289.18 248.365C287.44 249.835 285.66 251.295 283.86 252.725L283.62 252.915C281.74 254.405 279.83 255.915 277.9 257.315L277.57 257.555C276.28 258.555 274.99 259.445 273.68 260.375L272.99 260.875C271.65 261.825 270.29 262.765 268.93 263.695L268.01 264.315L264.95 266.315L264.27 266.755C263.05 267.542 261.823 268.322 260.59 269.095L259.59 269.705L257.01 271.285L255.91 271.955L252.91 273.715L252.35 274.045C251.21 274.705 250.06 275.355 248.91 276.045L247.98 276.565C247.13 277.035 246.28 277.505 245.42 277.965L244.19 278.625L241.97 279.795L240.73 280.435L238.3 281.675L237.3 282.185L233.89 283.855L233.47 284.055L230.47 285.485L229.31 286.015L227.02 287.015L225.72 287.595L223.52 288.595L222.21 289.155L219.93 290.155L218.73 290.645L215.86 291.725L215.24 291.965C214.073 292.425 212.903 292.875 211.73 293.315L210.73 293.695L208.21 294.615L206.96 295.065L204.55 295.905L203.28 296.335L200.7 297.195L199.7 297.525L196.04 298.675L195.28 298.895L192.36 299.755L191.19 300.085L188.32 300.875L187.32 301.155L183.54 302.155L183.07 302.265C181.85 302.565 180.64 302.845 179.43 303.115L178.37 303.355C177.02 303.645 175.67 303.935 174.37 304.205C172.82 304.515 171.28 304.795 169.75 305.065L168.92 305.205C167.44 305.465 165.92 305.695 164.48 305.915L163.23 306.085L161.52 306.325L160.1 306.505L158.4 306.705L156.99 306.855L155.3 307.025L153.91 307.145L152.23 307.285L150.97 307.375L147.27 307.585H146.86C145.73 307.635 144.6 307.665 143.48 307.685H142.48H138.86C137.68 307.685 136.5 307.685 135.34 307.585H134.44C133.51 307.585 132.58 307.485 131.66 307.415L130.81 307.355C129.67 307.265 128.54 307.165 127.42 307.045L126.78 306.975L124 306.625L123.09 306.495C121.98 306.325 120.88 306.155 119.8 305.955C108.35 303.875 99.06 300.085 91.98 294.955C90.4381 293.836 88.9685 292.62 87.58 291.315C86.9 290.685 86.25 290.025 85.63 289.315C83.1813 286.703 81.105 283.765 79.46 280.585L99.07 318.685C105.53 331.235 119.07 340.335 139.41 344.035C140.49 344.235 141.59 344.405 142.7 344.575L143.61 344.705C144.53 344.835 145.45 344.945 146.39 345.055L147.03 345.125C148.15 345.245 149.28 345.355 150.42 345.435C150.7 345.435 150.99 345.435 151.27 345.495C152.19 345.565 153.12 345.615 154.05 345.665H154.95C156.11 345.715 157.29 345.745 158.47 345.765H162.11H163.11C164.22 345.765 165.34 345.715 166.47 345.665H166.78C168 345.665 169.23 345.535 170.47 345.455H170.88L171.74 345.385L173.41 345.245L174.81 345.125L176.49 344.955L177.9 344.805L179.6 344.605L181.01 344.425L182.74 344.195C183.03 344.195 183.32 344.115 183.62 344.075L183.98 344.015C185.46 343.795 186.93 343.565 188.42 343.305L189.25 343.165C190.79 342.895 192.32 342.615 193.87 342.305C195.21 342.035 196.56 341.745 197.87 341.455L198.93 341.215C200.14 340.945 201.35 340.665 202.57 340.365L202.94 340.285H203.04L206.82 339.285L207.82 339.005L210.7 338.215L211.36 338.035L211.86 337.885C212.86 337.605 213.81 337.325 214.79 337.025L215.54 336.805C216.76 336.435 217.98 336.045 219.2 335.655L219.43 335.585L220.22 335.325L222.86 334.415L224.13 333.985C224.93 333.715 225.74 333.435 226.54 333.145C226.8 333.055 227.05 332.975 227.3 332.875L227.79 332.705C228.63 332.395 229.47 332.095 230.3 331.775L231.3 331.395L234.81 330.045H234.88L235.42 329.825L238.27 328.675L239.47 328.185L241.75 327.185C241.94 327.105 242.13 327.035 242.31 326.945L243.06 326.625L245.26 325.625L246.56 325.045L248.85 324.045L249.71 323.655L250.02 323.515L253.02 322.075L253.41 321.895C254.55 321.345 255.69 320.785 256.82 320.215L257.05 320.105L257.83 319.705L260.26 318.475L261.5 317.825L263.72 316.655L264.43 316.285L264.96 315.995L267.49 314.605L268.49 314.075C269.64 313.435 270.78 312.785 271.92 312.075L272.03 312.015L272.48 311.755L275.48 309.985L276.58 309.315L279.16 307.745L279.83 307.325L280.14 307.135C281.373 306.355 282.6 305.572 283.82 304.785L284.5 304.335C285.5 303.665 286.5 302.995 287.56 302.335L288.11 301.965L288.48 301.715C289.84 300.785 291.2 299.845 292.54 298.895L293.24 298.395C294.573 297.469 295.863 296.529 297.11 295.575L297.38 295.385H297.45C299.377 293.945 301.283 292.479 303.17 290.985L303.41 290.795C305.22 289.365 306.99 287.905 308.74 286.435L308.93 286.275L309.34 285.925C310.593 284.859 311.83 283.785 313.05 282.705L313.23 282.545C314.47 281.432 315.697 280.312 316.91 279.185C317.14 278.975 317.37 278.765 317.59 278.545C318.763 277.445 319.92 276.335 321.06 275.215L321.69 274.585C322.86 273.415 324.03 272.235 325.17 271.045C326.1 270.045 327 269.105 327.89 268.135C328.2 267.805 328.48 267.475 328.78 267.135C329.36 266.495 329.94 265.855 330.5 265.215L331.5 264.035C332 263.465 332.5 262.885 332.98 262.305L333.98 261.065C334.43 260.515 334.89 259.965 335.33 259.415L336.33 258.135C336.75 257.595 337.17 257.065 337.57 256.535C337.97 256.005 338.23 255.655 338.57 255.215C338.91 254.775 339.35 254.215 339.72 253.655L340.66 252.335C341.02 251.825 341.39 251.335 341.74 250.795C342.09 250.255 342.33 249.915 342.62 249.465C342.91 249.015 343.17 248.665 343.43 248.255L343.63 247.945L344.36 246.795C344.7 246.255 345.04 245.715 345.36 245.185L346.07 244.005C346.38 243.475 346.69 243.005 346.98 242.435L347.65 241.245C347.94 240.725 348.22 240.245 348.49 239.705C348.76 239.165 348.91 238.905 349.12 238.515L349.49 237.805C349.68 237.445 349.85 237.085 350.03 236.725C350.12 236.525 350.23 236.325 350.32 236.125C350.72 235.295 351.11 234.475 351.47 233.665C351.55 233.495 351.61 233.335 351.69 233.175C351.98 232.505 352.27 231.825 352.55 231.175C352.64 230.945 352.74 230.725 352.83 230.495C352.92 230.265 352.98 230.135 353.05 229.965C353.12 229.795 353.22 229.505 353.31 229.265C353.57 228.585 353.82 227.905 354.06 227.265L354.45 226.155C354.68 225.475 354.89 224.795 355.1 224.155C355.17 223.925 355.26 223.685 355.32 223.455C355.38 223.225 355.38 223.245 355.41 223.135C355.59 222.535 355.74 221.945 355.9 221.355L356.17 220.355C356.34 219.645 356.5 218.945 356.65 218.235C356.65 218.045 356.74 217.855 356.78 217.655C356.775 217.635 356.775 217.615 356.78 217.595C356.93 216.855 357.06 216.115 357.18 215.375C357.18 215.245 357.18 215.115 357.25 214.975C357.39 214.115 357.5 213.255 357.59 212.395C357.64 211.955 357.66 211.535 357.7 211.105C357.74 210.675 357.78 210.325 357.8 209.945C357.82 209.565 357.94 208.975 357.96 208.525Z" fill="url(#paint1_linear)"/>
<path d="M305.63 232.965C257.5 285 174.4 315.855 119.76 305.965C65.1201 296.075 59.7601 247.255 107.76 197.025C155.76 146.795 238.98 114.135 293.62 124.075C348.26 134.015 353.64 182.735 305.63 232.965Z" fill="url(#paint2_linear)"/>
<path d="M284.31 229.085C246.64 268.495 181.31 294.085 138.49 286.325C95.6699 278.565 91.4199 240.265 129.09 200.855C166.76 161.445 232.04 135.855 274.91 143.615C317.78 151.375 321.98 189.685 284.31 229.085Z" fill="url(#paint3_linear)"/>
<path d="M132.32 208.015C169.98 168.605 235.27 143.015 278.13 150.775C292.97 153.475 303.13 159.775 308.61 168.605C304.83 156.135 293.52 147.005 274.91 143.605C232.04 135.815 166.76 161.415 129.09 200.855C104.45 226.625 97.7299 251.855 108.02 268.495C103.1 252.245 111 230.315 132.32 208.015Z" fill="#6DD1FC" fill-opacity="0.5"/>
<g filter="url(#filter0_i)">
<path d="M199.742 266.267L199.509 265.863C199.371 265.624 199.244 265.403 199.155 265.106C198.073 263.071 196.979 261.087 195.91 259.235L195.486 258.5L195.061 257.765C193.64 255.302 192.095 252.825 190.437 250.419C188.779 248.013 187.086 245.511 185.291 243.03C183.642 240.766 181.76 238.33 179.575 235.64C177.522 233.07 175.409 230.559 173.293 228.185C171.073 225.631 168.839 223.178 166.456 220.664C165.84 220.027 165.26 219.382 164.649 218.754C164.038 218.127 163.412 217.508 162.811 216.863L162.574 216.613C162.177 216.23 161.824 215.852 161.406 215.45C161.361 215.372 159.752 214.003 158.286 214.513C158.006 214.634 157.74 214.801 157.514 214.998C157.288 215.195 157.111 215.415 156.999 215.636L157.028 215.687C156.87 216.053 156.735 216.417 156.623 216.778L148.548 248.396C147.946 250.89 148.192 253.17 149.263 255.015C150.319 256.86 152.167 258.206 154.625 258.922L190.717 269.034C192.514 269.416 194.556 269.469 196.739 269.189L197.338 269.114C197.668 269.058 198.019 269.002 198.38 268.928L198.434 268.897C198.646 268.841 198.861 268.747 199.058 268.624C199.256 268.502 199.432 268.353 199.57 268.192C199.99 267.736 200.095 267.056 199.742 266.267Z" fill="url(#paint4_linear)" fill-opacity="0.7"/>
<path d="M237.383 246.263L237.36 246.221C237.331 246.011 237.287 245.791 237.275 245.572L237.251 245.531C237.244 245.5 237.229 245.473 237.206 245.453C233.955 219.449 228.036 199.765 218.637 183.486C217.894 182.199 217.329 181.221 216.742 180.329C212.96 175.105 211.494 174.825 206.959 177.443L174.344 196.273C173.086 196.999 171.129 197.878 170.558 198.986C169.986 200.094 171.054 201.101 171.533 201.841L173.292 204.691C174.54 206.654 175.813 208.59 177.091 210.536C179.869 214.684 182.73 218.76 185.658 222.81C192.294 231.954 199.318 240.856 206.585 249.605L207.453 250.715C207.885 251.176 208.255 251.673 208.627 252.12L211.401 255.615C216.015 260.756 216.108 260.666 220.899 257.899L233.875 250.408C238.069 248.005 237.324 247.308 237.383 246.263Z" fill="url(#paint5_linear)" fill-opacity="0.7"/>
<path d="M229.383 170.984C229.437 171.097 229.475 171.218 229.499 171.346L230.073 172.932C230.814 175.04 231.581 177.122 232.319 179.226C233.469 182.413 234.619 185.6 235.769 188.788C237.119 192.542 238.481 196.264 239.81 200.018C241.138 203.772 242.514 207.499 243.868 211.263C245.029 214.468 246.191 217.677 247.356 220.889L249.65 227.302C250.237 228.911 250.853 230.516 251.523 232.071C251.883 232.856 252.238 233.631 252.641 234.403C252.89 235.184 253.32 235.873 253.916 236.448C254.036 236.552 254.216 236.606 254.43 236.604C255.613 236.608 257.583 234.999 258.495 234.301C260.148 233.007 261.569 231.559 262.67 230.047C263.77 228.535 264.527 226.991 264.892 225.51C265.019 224.978 273.896 190.085 273.896 190.085C274.508 187.598 274.266 185.324 273.193 183.489C272.131 181.635 270.277 180.278 267.813 179.55L232.601 169.653C232.29 169.581 231.998 169.505 231.669 169.456C231.34 169.407 231.09 169.349 230.845 169.319L230.626 169.299C230.438 169.309 230.232 169.363 230.033 169.457C229.834 169.55 229.649 169.678 229.501 169.825C229.174 170.192 229.28 170.572 229.383 170.984Z" fill="url(#paint6_linear)" fill-opacity="0.7"/>
</g>
</g>
<defs>
<filter id="filter0_i" x="133.971" y="154.27" width="157.688" height="134.516" filterUnits="userSpaceOnUse" color-interpolation-filters="sRGB">
<feFlood flood-opacity="0" result="BackgroundImageFix"/>
<feBlend mode="normal" in="SourceGraphic" in2="BackgroundImageFix" result="shape"/>
<feColorMatrix in="SourceAlpha" type="matrix" values="0 0 0 0 0 0 0 0 0 0 0 0 0 0 0 0 0 0 127 0" result="hardAlpha"/>
<feOffset dy="2"/>
<feGaussianBlur stdDeviation="2"/>
<feComposite in2="hardAlpha" operator="arithmetic" k2="-1" k3="1"/>
<feColorMatrix type="matrix" values="0 0 0 0 0 0 0 0 0 0 0 0 0 0 0 0 0 0 0.15 0"/>
<feBlend mode="normal" in2="shape" result="effect1_innerShadow"/>
</filter>
<linearGradient id="paint0_linear" x1="79.244" y1="207.982" x2="90.6438" y2="310.779" gradientUnits="userSpaceOnUse">
<stop stop-color="#5FF19D" stop-opacity="0"/>
<stop offset="0.520833" stop-color="#8EEDF4" stop-opacity="0.15"/>
</linearGradient>
<linearGradient id="paint1_linear" x1="79.42" y1="247.585" x2="358.01" y2="247.585" gradientUnits="userSpaceOnUse">
<stop stop-color="#5DF09E"/>
<stop offset="1" stop-color="#77CEFD"/>
</linearGradient>
<linearGradient id="paint2_linear" x1="75.0001" y1="214.965" x2="338.4" y2="214.965" gradientUnits="userSpaceOnUse">
<stop stop-color="#5DF09E"/>
<stop offset="1" stop-color="#8EEDF4"/>
</linearGradient>
<linearGradient id="paint3_linear" x1="96.8754" y1="214.97" x2="323.598" y2="214.97" gradientUnits="userSpaceOnUse">
<stop stop-color="#7AFAB0"/>
<stop offset="1" stop-color="#88DDFB"/>
</linearGradient>
<linearGradient id="paint4_linear" x1="149.49" y1="217.12" x2="186.393" y2="281.039" gradientUnits="userSpaceOnUse">
<stop stop-color="#04BEFE"/>
<stop offset="1" stop-color="#5FF19D"/>
</linearGradient>
<linearGradient id="paint5_linear" x1="190.185" y1="184.298" x2="232.252" y2="257.16" gradientUnits="userSpaceOnUse">
<stop stop-color="#04BEFE"/>
<stop offset="1" stop-color="#5FF19D"/>
</linearGradient>
<linearGradient id="paint6_linear" x1="236.43" y1="163.183" x2="275.2" y2="230.333" gradientUnits="userSpaceOnUse">
<stop stop-color="#04BEFE"/>
<stop offset="1" stop-color="#5FF19D"/>
</linearGradient>
<clipPath id="clip0">
<rect width="283.01" height="223.55" fill="white" transform="translate(75 122.245)"/>
</clipPath>
</defs>
</svg>
