<svg width="280" height="285" viewBox="0 0 280 285" fill="none" xmlns="http://www.w3.org/2000/svg">
<rect x="121.851" width="201.501" height="162.582" transform="rotate(38.3385 121.851 0)" fill="url(#paint0_linear)"/>
<g clip-path="url(#clip0)">
<path d="M182.849 248.072C182.41 248.593 181.949 249.107 181.48 249.607L181.004 250.083C180.677 250.411 180.35 250.739 180.008 251.052C179.814 251.238 179.606 251.41 179.405 251.589C179.085 251.872 178.766 252.147 178.438 252.416C178.111 252.684 177.992 252.773 177.761 252.952C177.531 253.131 177.1 253.459 176.757 253.697C176.415 253.936 176.281 254.04 176.014 254.204C175.746 254.368 175.27 254.673 174.943 254.897C174.697 255.053 174.452 255.21 174.199 255.359C173.82 255.582 173.455 255.799 173.031 256.015C172.786 256.149 172.54 256.283 172.288 256.41C171.849 256.641 171.395 256.857 170.934 257.065C170.718 257.17 170.51 257.274 170.287 257.371C169.647 257.654 168.993 257.922 168.331 258.176L167.818 258.362C167.297 258.556 166.762 258.742 166.219 258.913L165.579 259.114C164.954 259.308 164.322 259.487 163.675 259.651L163.4 259.725C162.656 259.912 161.912 260.083 161.169 260.239L160.529 260.359C159.941 260.47 159.346 260.575 158.744 260.664L158.052 260.769C157.249 260.88 156.438 260.985 155.605 261.067H155.546C154.735 261.149 153.902 261.208 153.062 261.253L152.281 261.29C151.641 261.29 150.994 261.335 150.34 261.342H149.559C148.666 261.342 147.759 261.342 146.837 261.342L144.94 261.253L144.286 261.208L143.021 261.111L142.278 261.037L141.125 260.925L140.292 260.828C139.935 260.783 139.548 260.746 139.221 260.694C138.477 260.597 137.689 260.485 136.923 260.366L136.566 260.307C135.911 260.202 135.257 260.09 134.595 259.964L133.851 259.822C133.316 259.718 132.773 259.614 132.23 259.494L131.434 259.33L129.664 258.921L129.076 258.786C128.288 258.593 127.507 258.399 126.719 258.183L126.198 258.041C125.581 257.877 124.963 257.699 124.339 257.52L123.543 257.281L121.899 256.782L121.111 256.529L119.207 255.895L118.708 255.724L117.615 255.344L116.626 254.986L115.533 254.577L114.536 254.204L113.42 253.764L112.454 253.377L111.331 252.915C111.011 252.781 110.683 252.654 110.364 252.513L109.256 252.036L108.281 251.611L107.166 251.104L106.199 250.665L104.934 250.069L104.057 249.659L102.733 249.003L101.989 248.638L99.9811 247.61L99.6984 247.468C99.0811 247.14 98.4638 246.82 97.854 246.484C97.5788 246.343 97.3036 246.186 97.0359 246.037C96.6194 245.814 96.2029 245.59 95.7864 245.352C95.5037 245.203 95.2285 245.039 94.9534 244.882L93.7336 244.189L92.8411 243.668C92.4544 243.444 92.0974 243.221 91.6884 242.99L90.7512 242.424L89.6505 241.76L88.6762 241.149L87.6275 240.494L86.6607 239.868L85.5971 239.19L84.6451 238.556L83.5965 237.856L82.6445 237.208L81.6032 236.463L80.6512 235.792C80.3091 235.546 79.967 235.315 79.6323 235.047L78.6729 234.354L77.6614 233.609L76.7243 232.908L75.7128 232.163L74.7831 231.418L73.7865 230.673L72.8494 229.928L71.8751 229.183L70.9529 228.438C70.6256 228.177 70.2984 227.916 69.9786 227.648L69.0712 226.903L68.1043 226.098L67.2044 225.353L66.245 224.533L65.3525 223.743L64.4154 222.916L63.5229 222.111L62.6007 221.269L61.723 220.457L60.8083 219.593L59.9529 218.766C59.648 218.475 59.3431 218.192 59.0456 217.894L58.1977 217.067L57.3052 216.18C57.0226 215.904 56.7474 215.621 56.4722 215.338L55.5872 214.444L54.9773 213.811C54.5088 213.326 54.0476 212.842 53.5865 212.32L52.9395 211.627C52.4709 211.128 52.0098 210.622 51.5487 210.137L51.0206 209.563C50.4033 208.87 49.786 208.17 49.1761 207.47L48.8638 207.112C48.358 206.531 47.8523 205.935 47.3763 205.346L46.7962 204.646C46.3797 204.146 45.9706 203.64 45.5616 203.155L44.9889 202.41C44.5203 201.829 44.0592 201.248 43.6055 200.659L43.2634 200.227C42.6982 199.482 42.1478 198.737 41.5974 198.029L41.1735 197.448C40.7644 196.896 40.3628 196.345 39.9686 195.786L39.5298 195.175C38.7861 194.117 38.0423 193.051 37.2986 191.979L36.9862 191.494C36.2574 190.406 35.5508 189.308 34.8666 188.201L34.6211 187.813C33.922 186.673 33.2378 185.533 32.5759 184.378L32.4271 184.125C31.7429 182.928 31.076 181.721 30.4265 180.504C30.0248 179.758 29.6381 179.013 29.2588 178.268L28.753 177.225C28.5299 176.785 28.3142 176.338 28.106 175.899C27.8977 175.459 27.7787 175.206 27.6151 174.856C27.4515 174.505 27.2135 173.991 27.0201 173.559C26.8267 173.127 26.7152 172.814 26.559 172.501L26.0161 171.242C25.8748 170.884 25.7334 170.497 25.5847 170.184C25.4359 169.871 25.25 169.349 25.0938 168.939C24.9376 168.529 24.8186 168.239 24.6922 167.889C24.5658 167.538 24.3873 167.076 24.2385 166.667L23.8667 165.616C23.7328 165.221 23.5915 164.819 23.4576 164.416L23.1229 163.381C22.9965 162.986 22.8775 162.591 22.7585 162.196C22.6395 161.801 22.5502 161.51 22.4536 161.168L22.1858 160.199C21.9329 159.275 21.6949 158.358 21.4793 157.449C21.4625 157.401 21.45 157.351 21.4421 157.3C21.2189 156.347 21.0256 155.408 20.8471 154.476L20.7132 153.731C20.5645 152.912 20.4306 152.092 20.3116 151.28C20.3116 151.161 20.2744 151.049 20.2595 150.93C20.1331 150.028 20.0364 149.134 19.9546 148.247C19.9546 148.024 19.9174 147.8 19.8951 147.569C19.8356 146.819 19.791 146.074 19.7612 145.334C19.7612 145.185 19.7612 145.028 19.7612 144.872C19.7612 144.015 19.7612 143.173 19.7612 142.331V141.727C19.7612 141.027 19.8058 140.341 19.8579 139.656C19.8579 139.484 19.8579 139.306 19.8579 139.142C19.9248 138.329 20.0067 137.532 20.1108 136.75C20.1108 136.571 20.1628 136.4 20.1851 136.221C20.2818 135.572 20.3859 134.924 20.5124 134.291C20.5124 134.112 20.5793 133.933 20.6091 133.754C20.7653 133.009 20.9437 132.264 21.1371 131.519C21.1743 131.377 21.2189 131.236 21.2561 131.094C21.4272 130.476 21.6131 129.872 21.8139 129.276C21.866 129.097 21.9255 128.919 21.985 128.747C22.2304 128.047 22.4907 127.354 22.7734 126.683C22.818 126.571 22.87 126.475 22.9147 126.363C23.1675 125.782 23.4353 125.208 23.7179 124.642C23.7997 124.478 23.8815 124.306 23.9708 124.142C24.298 123.501 24.6476 122.868 25.0194 122.25L25.131 122.078C25.4731 121.512 25.8748 120.968 26.2169 120.424L26.5441 119.97C26.9681 119.388 27.3994 118.815 27.8605 118.263L8.14397 141.914C7.69029 142.465 7.25149 143.039 6.82756 143.62L6.50776 144.074C6.12845 144.618 5.76402 145.162 5.4219 145.729L5.31032 145.9C4.93845 146.518 4.56659 147.152 4.25422 147.793C4.17241 147.957 4.0906 148.128 4.00135 148.292C3.72617 148.858 3.45098 149.432 3.20555 150.013C3.15348 150.117 3.10886 150.222 3.06423 150.333C2.78161 151.004 2.5213 151.697 2.27587 152.397L2.09738 152.927C1.89657 153.523 1.71806 154.126 1.547 154.745C1.50237 154.886 1.45776 155.028 1.42057 155.169C1.2272 155.914 1.05613 156.66 0.899946 157.405C0.862759 157.583 0.833021 157.762 0.795834 157.941C0.676835 158.575 0.565257 159.223 0.476008 159.871C0.476008 160.05 0.423957 160.221 0.394208 160.4C0.297521 161.145 0.20826 161.98 0.14876 162.792C0.14876 162.956 0.148769 163.135 0.111582 163.306C0.066958 163.984 0.0372048 164.677 0.0148926 165.378C0.0148926 165.579 0.0148926 165.78 0.0148926 165.981C0.0148926 166.816 0.0148926 167.665 0.0148926 168.522V168.984C0.0148926 169.729 0.0967058 170.474 0.156205 171.219C0.156205 171.45 0.193405 171.674 0.215717 171.897C0.297529 172.784 0.394195 173.678 0.520631 174.58C0.520631 174.699 0.520636 174.811 0.572698 174.93C0.684259 175.742 0.818131 176.562 0.966879 177.381L1.10077 178.127C1.27927 179.058 1.47263 179.997 1.69575 180.951C1.71164 180.999 1.72406 181.049 1.73293 181.1C1.94862 182.009 2.18662 182.925 2.43949 183.849C2.47668 183.976 2.50643 184.103 2.53618 184.229L2.71467 184.818C2.81136 185.161 2.90804 185.503 3.01217 185.846C3.11629 186.189 3.2576 186.636 3.38404 187.031C3.51047 187.426 3.59973 187.724 3.71873 188.067C3.83773 188.409 3.98647 188.864 4.12778 189.266C4.26909 189.669 4.37321 189.967 4.49965 190.317C4.62608 190.667 4.79715 191.129 4.9459 191.539L5.34752 192.59C5.51114 192.999 5.67476 193.417 5.84582 193.834L6.2772 194.892C6.4557 195.309 6.63418 195.734 6.82011 196.151C7.00605 196.568 7.12507 196.852 7.28125 197.209C7.43744 197.567 7.67543 198.074 7.87624 198.506L8.35966 199.549C8.57535 199.996 8.79103 200.436 9.01416 200.883C9.23728 201.33 9.34883 201.568 9.5199 201.911L9.60914 202.097C9.9587 202.783 10.3157 203.476 10.6876 204.169C11.3272 205.386 11.9941 206.593 12.6882 207.79C12.7329 207.879 12.7849 207.961 12.8295 208.043C13.494 209.191 14.1782 210.333 14.8823 211.471L15.1277 211.873C15.8119 212.976 16.516 214.071 17.2399 215.159L17.5597 215.644C18.2737 216.717 19.0175 217.782 19.7909 218.84L19.9769 219.109C20.0587 219.22 20.1405 219.34 20.2298 219.451C20.6239 220.01 21.0256 220.562 21.4272 221.105L21.8585 221.694C22.4089 222.439 22.9593 223.184 23.5171 223.885L23.8741 224.339C24.3278 224.921 24.7815 225.502 25.2426 226.075L25.8227 226.821C26.2318 227.327 26.6408 227.827 27.0573 228.311L27.6374 229.004C28.1357 229.6 28.6415 230.196 29.1249 230.785C29.229 230.896 29.3257 231.016 29.4298 231.135C30.0397 231.835 30.657 232.536 31.2817 233.229L31.8098 233.81C32.2709 234.309 32.732 234.816 33.2006 235.3L33.8477 235.993C34.3088 236.49 34.7699 236.987 35.231 237.483C35.3649 237.625 35.4987 237.774 35.6401 237.908L35.8483 238.124L36.7259 239.018L37.5589 239.86L38.4514 240.74L39.3067 241.582L40.1992 242.438L41.0694 243.273L41.9842 244.122L42.8618 244.935C43.1667 245.218 43.4717 245.501 43.784 245.777L44.6691 246.581L45.6062 247.408L46.5061 248.198L47.4507 249.01L48.358 249.756L49.3249 250.56L50.2323 251.305L51.2066 252.095L52.1362 252.84L53.1105 253.586L54.0476 254.331L55.0368 255.076L55.9739 255.821L56.9854 256.566L57.9225 257.266L58.9415 258.012L59.886 258.697L60.9124 259.442L61.8644 260.113L62.9205 260.858L63.8502 261.499L64.9137 262.199L65.8582 262.833L66.9218 263.518L67.8738 264.129L68.9522 264.807L69.9042 265.396L71.0272 266.081L71.9346 266.633L73.1023 267.318L73.9873 267.832L75.2294 268.577L76.0326 269.032L77.3565 269.777L78.1002 270.187L79.796 271.081L80.4504 271.431L82.2354 272.34L83.0163 272.72L84.3179 273.361L85.2029 273.778L86.3929 274.337L87.3523 274.769L88.4828 275.284L89.4497 275.701L90.5653 276.185C90.8851 276.327 91.2124 276.453 91.5322 276.588L92.6552 277.049L93.6295 277.437L94.7377 277.877L95.7492 278.257L96.8202 278.659L97.8242 279.017L98.9026 279.397H99.0068L99.4009 279.531L101.305 280.164L102.101 280.41C102.644 280.589 103.194 280.753 103.744 280.917L104.54 281.155L106.385 281.677L106.92 281.818C107.709 282.034 108.489 282.228 109.27 282.422L109.865 282.556L111.635 282.966L112.431 283.13L114.045 283.458L114.789 283.599C115.443 283.726 116.098 283.838 116.752 283.942L117.117 284.002C117.861 284.121 118.649 284.233 119.415 284.329H119.586L120.553 284.419L121.378 284.516L122.539 284.627L123.282 284.702L124.562 284.799L125.194 284.844L127.098 284.933C128.02 284.933 128.927 284.978 129.82 284.933H130.608C131.27 284.933 131.917 284.933 132.557 284.881L133.301 284.844C134.149 284.799 134.981 284.739 135.8 284.657H135.859C136.685 284.575 137.495 284.471 138.291 284.359L138.983 284.255C139.585 284.158 140.18 284.061 140.775 283.949L141.407 283.83C142.171 283.676 142.915 283.505 143.639 283.316L143.921 283.242C144.568 283.078 145.2 282.891 145.825 282.705L146.457 282.504C147 282.325 147.536 282.146 148.064 281.952L148.57 281.766C149.194 281.528 149.812 281.282 150.414 281.021L150.533 280.961L151.18 280.656C151.634 280.447 152.088 280.231 152.534 280C152.787 279.874 153.032 279.739 153.277 279.605C153.672 279.389 154.021 279.173 154.438 278.95L155.181 278.488C155.548 278.264 155.905 278.033 156.252 277.795L156.996 277.288C157.338 277.042 157.666 276.796 158 276.543C158.335 276.289 158.454 276.193 158.67 276.006C159.004 275.738 159.324 275.462 159.644 275.179C159.845 275 160.053 274.829 160.246 274.643C160.588 274.33 160.916 274.002 161.236 273.674L161.719 273.197C162.188 272.698 162.641 272.191 163.08 271.707L182.849 248.072Z" fill="url(#paint1_linear)"/>
<path d="M182.446 248.494C202.781 224.094 184.56 175.282 141.749 139.47C98.937 103.658 47.7463 94.4074 27.4112 118.808C7.07598 143.208 25.2968 192.02 68.1085 227.832C110.92 263.644 162.111 272.895 182.446 248.494Z" fill="url(#paint2_linear)"/>
<path d="M169.277 235.359C185.462 215.938 170.632 176.814 136.154 147.973C101.676 119.132 60.6051 111.496 44.4199 130.916C28.2347 150.337 43.0642 189.461 77.5424 218.302C112.021 247.143 153.092 254.78 169.277 235.359Z" fill="url(#paint3_linear)"/>
<path d="M167.185 185.57C148.741 150.825 106.771 121.698 73.4741 120.521C59.0901 120.014 48.6778 124.798 42.9807 133.188C48.8711 129.135 56.844 127.011 66.6688 127.354C99.9884 128.531 141.958 157.658 160.38 192.411C170.867 212.157 171.492 229.473 163.958 240.523C178.022 230.837 180.186 210.078 167.185 185.57Z" fill="#6DD1FC" fill-opacity="0.5"/>
<g filter="url(#filter0_i)">
<path d="M139.078 184.315L138.8 184.592C138.636 184.756 138.484 184.908 138.27 185.054C136.862 186.385 135.494 187.712 134.222 188.983L133.717 189.488L133.212 189.993C131.52 191.685 129.831 193.467 128.209 195.31C126.587 197.153 124.897 199.048 123.234 201.008C121.717 202.805 120.098 204.815 118.322 207.11C116.621 209.278 114.971 211.472 113.424 213.63C111.755 215.912 110.162 218.176 108.541 220.562C108.131 221.175 107.711 221.765 107.308 222.372C106.906 222.979 106.511 223.595 106.093 224.199L105.933 224.436C105.689 224.824 105.445 225.179 105.19 225.587C105.136 225.641 104.288 227.16 104.837 228.056C104.96 228.221 105.116 228.363 105.289 228.468C105.463 228.573 105.648 228.637 105.828 228.655L105.862 228.62C106.156 228.63 106.445 228.624 106.729 228.603L131.42 225.523C133.364 225.255 135.051 224.446 136.318 223.175C137.586 221.914 138.39 220.232 138.65 218.293L142.178 189.933C142.263 188.555 142.071 187.094 141.615 185.627L141.49 185.225C141.411 185.007 141.329 184.774 141.233 184.539L141.203 184.509C141.137 184.374 141.042 184.249 140.928 184.143C140.813 184.037 140.682 183.954 140.545 183.901C140.154 183.731 139.631 183.846 139.078 184.315Z" fill="url(#paint4_linear)" fill-opacity="0.7"/>
<path d="M119.78 163.237L119.752 163.265C119.597 163.344 119.436 163.436 119.273 163.506L119.245 163.535C119.222 163.548 119.204 163.566 119.191 163.588C100.002 173.124 85.8657 182.789 74.6845 193.971C73.8008 194.854 73.1286 195.527 72.5241 196.191C69.023 200.321 68.9777 201.437 71.4592 203.918L89.3055 221.764C89.9938 222.453 90.8757 223.593 91.7737 223.69C92.6716 223.786 93.3082 222.75 93.8109 222.205L95.7555 220.167C97.091 218.738 98.4032 217.298 99.7217 215.852C102.528 212.732 105.27 209.573 107.985 206.373C114.113 199.133 120.014 191.685 125.773 184.107L126.51 183.183C126.808 182.749 127.14 182.349 127.434 181.962L129.749 179.026C133.094 174.33 133.016 174.289 130.394 171.667L123.294 164.567C121.013 162.267 120.573 162.988 119.78 163.237Z" fill="url(#paint5_linear)" fill-opacity="0.7"/>
<path d="M64.068 189.843C64.1472 189.773 64.2339 189.712 64.3272 189.66L65.4552 188.813C66.9572 187.701 68.4359 186.58 69.9347 185.472C72.202 183.771 74.4692 182.07 76.7365 180.37C79.4075 178.37 82.0532 176.37 84.7264 174.385C87.3996 172.4 90.0473 170.39 92.7246 168.384C95.0045 166.671 97.2865 164.955 99.5706 163.238L104.134 159.83C105.278 158.967 106.415 158.084 107.509 157.177C108.059 156.704 108.602 156.237 109.137 155.737C109.696 155.344 110.166 154.848 110.531 154.266C110.595 154.152 110.616 154.01 110.59 153.858C110.46 153.02 109.027 152.074 108.399 151.622C107.239 150.812 105.989 150.209 104.728 149.851C103.466 149.492 102.22 149.387 101.065 149.54C100.65 149.598 73.4052 153.022 73.4052 153.022C71.4652 153.281 69.7824 154.085 68.5234 155.355C67.249 156.623 66.4379 158.312 66.1689 160.259L62.7035 187.935C62.6846 188.175 62.6603 188.404 62.6605 188.65C62.6606 188.896 62.6457 189.09 62.6508 189.271L62.6601 189.432C62.6889 189.562 62.7534 189.693 62.846 189.808C62.9387 189.923 63.0557 190.018 63.1834 190.082C63.4958 190.211 63.7698 190.031 64.068 189.843Z" fill="url(#paint6_linear)" fill-opacity="0.7"/>
</g>
</g>
<defs>
<filter id="filter0_i" x="48.4539" y="133.387" width="109.685" height="109.981" filterUnits="userSpaceOnUse" color-interpolation-filters="sRGB">
<feFlood flood-opacity="0" result="BackgroundImageFix"/>
<feBlend mode="normal" in="SourceGraphic" in2="BackgroundImageFix" result="shape"/>
<feColorMatrix in="SourceAlpha" type="matrix" values="0 0 0 0 0 0 0 0 0 0 0 0 0 0 0 0 0 0 127 0" result="hardAlpha"/>
<feOffset dy="2"/>
<feGaussianBlur stdDeviation="2"/>
<feComposite in2="hardAlpha" operator="arithmetic" k2="-1" k3="1"/>
<feColorMatrix type="matrix" values="0 0 0 0 0 0 0 0 0 0 0 0 0 0 0 0 0 0 0.15 0"/>
<feBlend mode="normal" in2="shape" result="effect1_innerShadow"/>
</filter>
<linearGradient id="paint0_linear" x1="177.897" y1="65.5304" x2="193.822" y2="167.095" gradientUnits="userSpaceOnUse">
<stop stop-color="#5FF19D" stop-opacity="0"/>
<stop offset="0.520833" stop-color="#8EEDF4" stop-opacity="0.15"/>
</linearGradient>
<linearGradient id="paint1_linear" x1="1.77671e-05" y1="201.65" x2="182.849" y2="201.65" gradientUnits="userSpaceOnUse">
<stop stop-color="#5DF09E"/>
<stop offset="1" stop-color="#77CEFD"/>
</linearGradient>
<linearGradient id="paint2_linear" x1="18.8289" y1="184.173" x2="190.949" y2="185.167" gradientUnits="userSpaceOnUse">
<stop stop-color="#5DF09E"/>
<stop offset="0.03" stop-color="#92EFA1"/>
<stop offset="1" stop-color="#8BE2FF"/>
</linearGradient>
<linearGradient id="paint3_linear" x1="37.844" y1="183.161" x2="175.793" y2="183.161" gradientUnits="userSpaceOnUse">
<stop stop-color="#5DF09E"/>
<stop offset="1" stop-color="#8EEDF4"/>
</linearGradient>
<linearGradient id="paint4_linear" x1="107.792" y1="233.557" x2="151.695" y2="189.654" gradientUnits="userSpaceOnUse">
<stop stop-color="#04BEFE"/>
<stop offset="1" stop-color="#5FF19D"/>
</linearGradient>
<linearGradient id="paint5_linear" x1="78.5092" y1="213.884" x2="128.556" y2="163.837" gradientUnits="userSpaceOnUse">
<stop stop-color="#04BEFE"/>
<stop offset="1" stop-color="#5FF19D"/>
</linearGradient>
<linearGradient id="paint6_linear" x1="57.4046" y1="187.025" x2="103.528" y2="140.902" gradientUnits="userSpaceOnUse">
<stop stop-color="#04BEFE"/>
<stop offset="1" stop-color="#5FF19D"/>
</linearGradient>
<clipPath id="clip0">
<rect width="191" height="180" fill="white" transform="translate(0 105)"/>
</clipPath>
</defs>
</svg>
